G75*
G70*
%OFA0B0*%
%FSLAX24Y24*%
%IPPOS*%
%LPD*%
%AMOC8*
5,1,8,0,0,1.08239X$1,22.5*
%
%ADD10C,0.0160*%
%ADD11C,0.0050*%
D10*
X000180Y000180D02*
X003782Y000180D01*
X003782Y014515D01*
X000180Y014515D01*
X000180Y000180D01*
D11*
X002962Y000664D02*
X002962Y000898D01*
X002962Y001033D02*
X002962Y001266D01*
X003020Y001401D02*
X002962Y001459D01*
X002962Y001576D01*
X003020Y001635D01*
X003137Y001635D01*
X003137Y001518D01*
X003137Y001769D02*
X003137Y002003D01*
X003254Y001635D02*
X003312Y001576D01*
X003312Y001459D01*
X003254Y001401D01*
X003020Y001401D01*
X002962Y001033D02*
X003312Y001033D01*
X003312Y001266D01*
X003137Y001149D02*
X003137Y001033D01*
X003312Y000664D02*
X002962Y000664D01*
X002962Y002138D02*
X002962Y002371D01*
X003020Y002506D02*
X002962Y002564D01*
X002962Y002681D01*
X003020Y002740D01*
X003254Y002740D01*
X003312Y002681D01*
X003312Y002564D01*
X003254Y002506D01*
X003020Y002506D01*
X003020Y002874D02*
X002962Y002933D01*
X002962Y003049D01*
X003020Y003108D01*
X003137Y003108D01*
X003137Y002991D01*
X003254Y002874D02*
X003020Y002874D01*
X003020Y003611D02*
X002962Y003669D01*
X002962Y003786D01*
X003020Y003844D01*
X003078Y003844D01*
X003137Y003786D01*
X003137Y003669D01*
X003195Y003611D01*
X003254Y003611D01*
X003312Y003669D01*
X003312Y003786D01*
X003254Y003844D01*
X003254Y003979D02*
X003195Y003979D01*
X003137Y004038D01*
X003137Y004154D01*
X003078Y004213D01*
X003020Y004213D01*
X002962Y004154D01*
X002962Y004038D01*
X003020Y003979D01*
X003020Y004348D02*
X002962Y004406D01*
X002962Y004523D01*
X003020Y004581D01*
X003254Y004581D01*
X003312Y004523D01*
X003312Y004406D01*
X003254Y004348D01*
X003020Y004348D01*
X002962Y004716D02*
X003312Y004716D01*
X003312Y004891D01*
X003254Y004949D01*
X003137Y004949D01*
X003078Y004891D01*
X003078Y004716D01*
X003254Y004213D02*
X003312Y004154D01*
X003312Y004038D01*
X003254Y003979D01*
X003254Y003108D02*
X003312Y003049D01*
X003312Y002933D01*
X003254Y002874D01*
X003312Y002138D02*
X002962Y002138D01*
X003194Y011063D02*
X003136Y011121D01*
X003136Y011296D01*
X003194Y011431D02*
X003136Y011489D01*
X003136Y011664D01*
X003369Y011664D01*
X003369Y011799D02*
X003369Y011858D01*
X003136Y011858D01*
X003136Y011916D02*
X003136Y011799D01*
X003136Y012045D02*
X003136Y012161D01*
X003136Y012103D02*
X003486Y012103D01*
X003486Y012045D01*
X003486Y011858D02*
X003544Y011858D01*
X003369Y011431D02*
X003194Y011431D01*
X003194Y011063D02*
X003311Y011063D01*
X003369Y011121D01*
X003369Y011296D01*
X003019Y011296D01*
X003136Y012290D02*
X003136Y012407D01*
X003136Y012349D02*
X003369Y012349D01*
X003369Y012290D01*
X003486Y012349D02*
X003544Y012349D01*
X003369Y012536D02*
X003136Y012769D01*
X003136Y012904D02*
X003136Y012962D01*
X003194Y012962D01*
X003194Y012904D01*
X003136Y012904D01*
X003194Y013088D02*
X003136Y013147D01*
X003136Y013322D01*
X003194Y013457D02*
X003136Y013515D01*
X003136Y013632D01*
X003194Y013690D01*
X003311Y013690D01*
X003369Y013632D01*
X003369Y013515D01*
X003311Y013457D01*
X003194Y013457D01*
X003194Y013088D02*
X003311Y013088D01*
X003369Y013147D01*
X003369Y013322D01*
X003369Y013825D02*
X003369Y013883D01*
X003311Y013942D01*
X003369Y014000D01*
X003311Y014058D01*
X003136Y014058D01*
X003136Y013942D02*
X003311Y013942D01*
X003369Y013825D02*
X003136Y013825D01*
X003369Y012769D02*
X003136Y012536D01*
M02*
