G75*
G70*
%OFA0B0*%
%FSLAX24Y24*%
%IPPOS*%
%LPD*%
%AMOC8*
5,1,8,0,0,1.08239X$1,22.5*
%
%ADD10R,0.0650X0.0315*%
%ADD11C,0.0700*%
%ADD12C,0.0160*%
D10*
X002477Y004109D03*
X002477Y004601D03*
X002477Y005093D03*
X002477Y005605D03*
X002477Y006097D03*
X002477Y006609D03*
X002477Y007101D03*
X002477Y007613D03*
X002477Y008105D03*
X002477Y008597D03*
X002477Y009109D03*
X002477Y009601D03*
X002477Y010113D03*
X002477Y010605D03*
D11*
X000837Y000857D03*
X000837Y001857D03*
X000837Y002857D03*
X000837Y003857D03*
X000837Y004857D03*
X000837Y005857D03*
X000837Y006857D03*
X000837Y007857D03*
X000837Y008857D03*
X000837Y009857D03*
X000837Y010857D03*
X000837Y011857D03*
X000837Y012857D03*
X000837Y013857D03*
D12*
X002416Y012278D01*
X002416Y010601D01*
X002416Y010101D02*
X002164Y010082D01*
X001975Y010271D01*
X001975Y011719D01*
X000837Y012857D01*
X000837Y011857D02*
X001660Y011034D01*
X001660Y010054D01*
X002133Y009582D01*
X002416Y009601D01*
X002416Y009101D02*
X002141Y009082D01*
X001365Y009857D01*
X001365Y010330D01*
X000837Y010857D01*
X000837Y009857D02*
X002113Y008582D01*
X002416Y008601D01*
X002416Y008101D02*
X001593Y008101D01*
X000837Y008857D01*
X000837Y007857D02*
X001113Y007601D01*
X002416Y007601D01*
X002416Y007101D02*
X001121Y007101D01*
X000837Y006857D01*
X001582Y006601D02*
X000837Y005857D01*
X000837Y004857D02*
X002062Y006082D01*
X002416Y006101D01*
X002416Y005601D02*
X002149Y005582D01*
X001385Y004818D01*
X001385Y004404D01*
X000837Y003857D01*
X001680Y003700D02*
X000837Y002857D01*
X000837Y001857D02*
X001975Y002975D01*
X001975Y004424D01*
X002133Y004582D01*
X002416Y004601D01*
X002416Y005101D02*
X002101Y005062D01*
X001680Y004641D01*
X001680Y003700D01*
X002416Y004101D02*
X002416Y002436D01*
X000837Y000857D01*
X001582Y006601D02*
X002416Y006601D01*
M02*
