G75*
G70*
%OFA0B0*%
%FSLAX24Y24*%
%IPPOS*%
%LPD*%
%AMOC8*
5,1,8,0,0,1.08239X$1,22.5*
%
%ADD10R,0.0728X0.0157*%
%ADD11C,0.0700*%
%ADD12C,0.0100*%
D10*
X002792Y005723D03*
X002792Y005979D03*
X002792Y006235D03*
X002792Y006491D03*
X002792Y006747D03*
X002792Y007003D03*
X002792Y007259D03*
X002792Y007515D03*
X002792Y007771D03*
X002792Y008026D03*
X002792Y008282D03*
X002792Y008538D03*
X002792Y008794D03*
X002792Y009050D03*
D11*
X000837Y008857D03*
X000837Y007857D03*
X000837Y006857D03*
X000837Y005857D03*
X000837Y004857D03*
X000837Y003857D03*
X000837Y002857D03*
X000837Y001857D03*
X000837Y000857D03*
X000837Y009857D03*
X000837Y010857D03*
X000837Y011857D03*
X000837Y012857D03*
X000837Y013857D03*
D12*
X002487Y002515D02*
X000814Y000841D01*
X000814Y001826D02*
X002113Y003125D01*
X002113Y005704D01*
X002389Y005979D01*
X002507Y005979D01*
X002487Y005723D02*
X002487Y002515D01*
X001877Y003893D02*
X000834Y002849D01*
X000814Y003834D02*
X001641Y004660D01*
X001641Y005861D01*
X002271Y006491D01*
X002526Y006491D01*
X002507Y006747D02*
X002192Y006747D01*
X001404Y005960D01*
X001404Y005389D01*
X000834Y004857D01*
X000834Y005841D02*
X001995Y007003D01*
X002526Y007003D01*
X002526Y007259D02*
X001227Y007259D01*
X000814Y006845D01*
X001227Y007515D02*
X000873Y007869D01*
X000834Y008873D02*
X001936Y007771D01*
X002526Y007771D01*
X002507Y007515D02*
X001227Y007515D01*
X002152Y008026D02*
X001385Y008794D01*
X001385Y009326D01*
X000834Y009857D01*
X001621Y010074D02*
X000834Y010861D01*
X000814Y011865D02*
X001857Y010822D01*
X001857Y009050D01*
X002369Y008538D01*
X002507Y008538D01*
X002507Y008794D02*
X002428Y008794D01*
X002074Y009149D01*
X002074Y011629D01*
X000834Y012869D01*
X000834Y013853D02*
X002487Y012200D01*
X002487Y009050D01*
X002487Y008282D02*
X002251Y008282D01*
X001621Y008912D01*
X001621Y010074D01*
X002152Y008026D02*
X002507Y008026D01*
X002487Y006255D02*
X002330Y006255D01*
X001877Y005802D01*
X001877Y003893D01*
M02*
